<?xml version="1.0" standalone="no"?>
<!DOCTYPE svg PUBLIC "-//W3C//DTD SVG 20010904//EN"
 "http://www.w3.org/TR/2001/REC-SVG-20010904/DTD/svg10.dtd">
<svg version="1.0" xmlns="http://www.w3.org/2000/svg"
 width="300.000000pt" height="300.000000pt" viewBox="0 0 300.000000 300.000000"
 preserveAspectRatio="xMidYMid meet">
<metadata>
Created by potrace 1.14, written by Peter Selinger 2001-2017
</metadata>
<g transform="translate(0.000000,300.000000) scale(0.100000,-0.100000)"
fill="#000000" stroke="none">
<path d="M250 2651 c-41 -39 -91 -184 -106 -301 -33 -274 52 -518 254 -730
117 -123 176 -356 176 -695 0 -133 -7 -248 -20 -325 -7 -42 -26 -75 -57 -95
-22 -14 -140 -40 -222 -49 -68 -7 -135 -25 -177 -49 -22 -12 -48 -26 -58 -31
-10 -5 -23 -18 -29 -28 -11 -17 27 -18 1059 -18 l1071 0 -18 31 c-20 35 -65
73 -105 88 -15 6 -63 15 -106 20 -134 17 -152 34 -159 149 -9 138 10 150 121
77 104 -68 107 -65 99 79 -6 105 -3 109 51 85 31 -14 52 -45 151 -219 104
-184 163 -239 315 -292 69 -24 220 -35 277 -19 l42 11 -30 71 -29 71 35 -26
c19 -15 49 -40 67 -57 18 -17 51 -40 72 -51 l40 -20 18 22 c23 28 23 78 1 110
-68 101 -223 314 -434 595 -136 182 -299 409 -363 505 -164 249 -200 300 -264
367 -107 111 -213 191 -350 263 -96 51 -125 98 -137 220 -16 161 -22 190 -53
224 -30 32 -63 38 -255 43 -187 4 -189 4 -231 -21 -46 -27 -61 -53 -74 -126
l-8 -45 -36 77 c-53 113 -51 112 -296 114 l-205 1 -27 -26z m308 -37 c61 -8
63 -14 26 -84 -29 -56 -26 -71 14 -61 60 17 135 -23 147 -78 13 -63 16 -81 20
-166 5 -81 3 -95 -20 -140 -17 -35 -41 -62 -80 -90 -37 -27 -58 -50 -66 -74
-16 -47 -5 -141 21 -196 39 -80 227 -251 419 -380 78 -53 129 -108 152 -165
11 -29 17 -225 10 -348 -1 -9 -18 -12 -61 -11 -33 1 -63 -1 -66 -4 -8 -8 -9
-99 -2 -182 6 -68 -2 -125 -22 -155 -9 -13 -13 -12 -29 7 -14 16 -19 46 -24
130 -4 59 -8 117 -11 128 -3 19 -12 68 -23 125 -9 51 -63 201 -97 267 -50 101
-135 213 -245 327 -110 112 -180 189 -213 232 -13 16 -31 38 -41 49 -45 48
-117 169 -138 232 -47 136 -25 426 37 484 26 24 75 30 127 15 23 -7 27 -5 27
10 0 11 -9 33 -20 49 -31 47 -27 73 13 78 56 7 91 7 145 1z m660 -2 c28 -2 28
-16 -3 -74 -36 -67 -34 -74 20 -70 91 8 140 -39 149 -141 5 -59 23 -104 50
-126 9 -8 42 -26 73 -41 84 -39 104 -69 51 -75 -132 -16 -164 -22 -202 -42
-128 -64 -171 -185 -111 -310 30 -61 128 -165 240 -254 80 -65 537 -378 694
-476 111 -69 219 -152 261 -200 87 -99 185 -236 254 -355 l27 -47 -26 -7 c-83
-21 -243 22 -329 87 -43 33 -61 59 -182 268 -27 46 -70 105 -96 131 -50 51
-145 104 -175 98 -20 -4 -20 -13 -10 -136 8 -85 7 -85 -83 -47 -75 32 -108 32
-119 3 -11 -30 -4 -192 13 -288 10 -61 42 -87 109 -88 83 -1 94 -3 113 -17 17
-13 -13 -14 -261 -14 -260 1 -276 2 -230 15 149 43 179 70 181 167 1 34 -4
107 -12 161 -38 275 -130 475 -304 663 -30 33 -91 99 -135 148 -44 49 -99 109
-123 133 -109 113 -178 229 -207 347 -33 132 -20 327 25 400 11 18 33 38 50
45 28 12 108 9 130 -5 16 -10 12 1 -20 65 -16 33 -30 64 -30 69 0 14 105 20
218 13z m443 -592 c149 -28 214 -92 439 -430 154 -233 518 -733 705 -970 55
-70 105 -150 105 -168 0 -22 -19 -12 -57 30 -235 264 -397 399 -916 764 -616
434 -658 472 -654 603 4 99 41 131 186 162 103 21 122 22 192 9z m-867 -62
c23 -76 62 -138 170 -268 53 -63 109 -142 125 -175 30 -62 54 -136 46 -143 -6
-6 -149 88 -240 157 -127 97 -236 225 -248 292 -8 40 25 101 79 147 27 23 50
42 51 42 1 0 9 -24 17 -52z m-63 -711 c96 -128 163 -287 184 -441 l7 -49 -27
7 c-15 4 -45 18 -67 32 -22 14 -55 28 -74 31 -31 5 -35 3 -48 -29 -8 -19 -18
-68 -21 -109 -9 -106 -25 -165 -56 -202 -15 -17 -29 -30 -32 -27 -3 3 1 37 9
75 20 103 28 213 28 365 0 129 -10 305 -18 319 -2 3 -7 31 -10 61 -4 30 -11
72 -16 94 l-9 39 46 -44 c24 -24 71 -79 104 -122z m537 109 c110 -117 197
-261 240 -396 24 -76 47 -198 39 -206 -3 -4 -39 12 -80 35 -129 71 -136 65
-162 -154 -7 -64 -23 -113 -47 -147 -25 -36 -39 -36 -28 0 35 125 43 498 15
712 -13 99 -18 129 -25 163 -4 20 -5 37 -1 37 4 0 26 -20 49 -44z m-433 -637
c96 -60 126 -124 95 -199 -17 -40 -52 -55 -127 -52 -36 1 -69 5 -73 7 -8 5 -6
72 4 140 19 136 21 145 32 145 2 0 33 -18 69 -41z m632 -3 c72 -42 107 -97 99
-154 -11 -80 -29 -92 -134 -94 l-77 -1 1 64 c1 60 8 128 18 174 2 11 5 26 5
33 1 20 27 14 88 -22z"/>
<path d="M320 2423 c-43 -16 -55 -87 -20 -118 11 -10 37 -19 58 -20 53 -2 59
-8 72 -70 6 -30 20 -65 30 -77 17 -21 20 -22 35 -7 9 9 23 42 31 75 22 81 31
96 52 86 9 -5 33 -9 52 -11 42 -3 73 24 73 64 0 36 -18 52 -67 59 -50 8 -101
-9 -133 -43 l-20 -22 -17 25 c-30 47 -101 76 -146 59z"/>
<path d="M931 2413 c-34 -29 -33 -96 2 -114 19 -11 35 -14 94 -18 7 -1 20 -27
28 -58 21 -74 35 -103 51 -103 15 0 38 41 48 85 4 17 12 43 18 58 10 26 14 28
47 21 20 -4 45 -6 56 -6 48 2 75 90 35 112 -55 30 -141 15 -181 -32 -21 -23
-21 -23 -38 10 -28 54 -118 79 -160 45z"/>
</g>
</svg>
