<?xml version="1.0" encoding="UTF-8" standalone="no"?>
<svg xmlns="http://www.w3.org/2000/svg" width="395" height="750" viewBox="0 0 316 600">
<title>Kabbalistic Tree of Life with the names of the Sephiroth and paths in Hebrew (based on Athanasius Kircher illustration)</title>
<g transform="translate(158,300)scale(0.392,-0.392)">
<g stroke-width="51.8" stroke="#000000" fill="none">
<path d="M0,653.561L-283,490.171"/>
<path stroke-width="43.8" stroke="#FFFFFF" d="M0,653.561L-283,490.171"/>
<path d="M0,653.561L283,490.171"/>
<path stroke-width="43.8" stroke="#FFFFFF" d="M0,653.561L283,490.171"/>
<path d="M0,0L283,490.17"/>
<path stroke-width="43.8" stroke="#FFFFFF" d="M0,0L283,490.17"/>
<path d="M0,0L-283,490.17"/>
<path stroke-width="43.8" stroke="#FFFFFF" d="M0,0L-283,490.17"/>
<path d="M0,0L283,163.39"/>
<path stroke-width="43.8" stroke="#FFFFFF" d="M0,0L283,163.39"/>
<path d="M0,0L-283,163.39"/>
<path stroke-width="43.8" stroke="#FFFFFF" d="M0,0L-283,163.39"/>
<path d="M0,0L283,-163.39"/>
<path stroke-width="43.8" stroke="#FFFFFF" d="M0,0L283,-163.39"/>
<path d="M0,0L-283,-163.39"/>
<path stroke-width="43.8" stroke="#FFFFFF" d="M0,0L-283,-163.39"/>
<path d="M0,-326.78L283,-163.39"/>
<path stroke-width="43.8" stroke="#FFFFFF" d="M0,-326.78L283,-163.39"/>
<path d="M0,-326.78L-283,-163.39"/>
<path stroke-width="43.8" stroke="#FFFFFF" d="M0,-326.78L-283,-163.39"/>
<path d="M283,490.17V-163.391"/>
<path stroke-width="43.8" stroke="#FFFFFF" d="M283,490.17V-163.391"/>
<path d="M-283,490.17V-163.391"/>
<path stroke-width="43.8" stroke="#FFFFFF" d="M-283,490.17V-163.391"/>
<path d="M0,653.561V-653.559"/>
<path stroke-width="43.8" stroke="#FFFFFF" d="M0,653.561V-653.559"/>
<path d="M283,490.17H-283"/>
<path stroke-width="43.8" stroke="#FFFFFF" d="M283,490.17H-283"/>
<path d="M283,163.39H-283"/>
<path stroke-width="43.8" stroke="#FFFFFF" d="M283,163.39H-283"/>
<path d="M283,-163.39H-283"/>
<path stroke-width="43.8" stroke="#FFFFFF" d="M283,-163.39H-283"/>
<path d="M0,-653.561L-283,-163.391"/>
<path stroke-width="43.8" stroke="#FFFFFF" d="M0,-653.561L-283,-163.391"/>
<path d="M0,-653.561L283,-163.391"/>
<path stroke-width="43.8" stroke="#FFFFFF" d="M0,-653.561L283,-163.391"/>
</g>
<g stroke-width="4" stroke="#000000" fill="#FFFFFF">
<circle r="100"/>
<circle cx="283" cy="163.3901262" r="100"/>
<circle cx="283" cy="-163.3901262" r="100"/>
<circle cx="-283" cy="163.3901262" r="100"/>
<circle cx="-283" cy="-163.3901262" r="100"/>
<circle cy="-326.7802524" r="100"/>
<circle cy="-653.5605047" r="100"/>
<circle cx="283" cy="490.1703785" r="100"/>
<circle cx="-283" cy="490.1703785" r="100"/>
<circle cy="653.5605047" r="100"/>
</g>
<path d="M-28.3,662.08
C-28.3,673.6,-42.68,673.3,-42.68,673.3H-53.56
C-59.96,673.3,-57.399,676.64,-57.399,676.64
C-62.999,673.76,-63.479,664,-53.56,664H-39.72
C-39.72,664,-32.9,664.48,-32.9,653.28V634.4
C-32.9,629.6,-28.3,633.28,-28.3,634.4Z"/>
<path d="M-9.48,637.92V640.64
C-9.48,643.2,-14.04,649.44,-14.04,653.84
C-14.04,656.08,-10.2,664.1,-6.2,664.1H5
C5,664.1,11,664.56,11,657.12V634.48
C11,629.52,15.6,633.2,15.6,634.48V664.72
C15.6,673.6,8.44,673.3,8.44,673.3H-11.48
C-17.88,673.3,-15.32,676.639,-15.32,676.639
C-20.92,673.76,-21.4,664,-11.96,664
C-16.36,664,-18.92,655.2,-18.92,653.36
C-18.92,650.16,-14.12,644.96,-14.12,643.36
C-14.12,641.12,-15.56,641.28,-15.56,641.28
C-21.16,641.28,-21.32,632,-15.56,632H-13.96
C-13.96,632,-9.48,632.16,-9.48,637.76Z"/>
<path d="M24.24,641.28L20.8,632H39.6
C39.6,632,54.3,632.16,54.3,652.8V662.08
C54.3,673.599,39.92,673.3,39.92,673.3H29.04
C22.64,673.3,25.2,676.639,25.2,676.639
C19.6,673.76,19.12,664,29.04,664H42.88
C42.88,664,48.64,664.479,48.64,653.28V649.44
C48.64,641.44,39.68,641.28,39.68,641.28Z"/>
<path d="M-339.3,471.16
C-339.3,466.2,-334.7,469.88,-334.7,471.16V487.32
C-334.7,492.28,-339.3,488.6,-339.3,487.32V471.16Z
M-320,500.6
C-319.84,500.6,-316.1,501.08,-316.1,496.44V471.16
C-316.1,466.2,-311.5,469.88,-311.5,471.16
C-311.52,471.16,-311.5,486.68,-311.5,496.44
C-311.5,501.08,-308.48,501.4,-308.48,505.4
C-308.48,507.64,-309.6,509.9,-311.68,509.9H-334.56
C-340.96,509.9,-338.4,513.24,-338.4,513.24
C-344,510.36,-344.48,500.6,-335.04,500.6Z"/>
<path d="M-302.36,477.88L-305.8,468.6H-295.8
C-295.8,468.6,-287.5,468.76,-287.5,477.88V504.28
C-287.5,510.2,-292.28,509.9,-292.28,509.9H-293.08
C-299.48,509.9,-297.08,512.919,-297.08,512.919
C-302.52,510.199,-303,500.6,-296.12,500.6
C-296.12,500.6,-292.1,501.08,-292.1,496.12V481.88
C-292.1,478.04,-295.8,477.88,-295.8,477.88Z"/>
<path d="M-273.72,494.36
C-277.24,490.36,-271.8,490.68,-270.36,492.44
C-268.44,494.52,-266.04,496.92,-266.04,499.48V504.28
C-266.04,510.199,-271,509.899,-271,509.899H-271.96
C-278.36,509.899,-275.96,512.919,-275.96,512.919
C-281.4,510.199,-281.72,500.599,-274.68,500.599
C-274.68,500.599,-267.8,501.719,-270.68,498.199
C-270.68,498.199,-272.6,495.8,-273.72,494.36Z"/>
<path d="M-257.24,477.88L-260.68,468.6H-229.32L-225.88,477.88H-228.52
C-228.52,477.88,-230.1,477.88,-230.1,480.28V504.28
C-230.1,510.199,-235.08,509.899,-235.08,509.899H-252.839
C-259.239,509.899,-256.679,513.239,-256.679,513.239
C-262.279,510.359,-262.759,500.599,-252.839,500.599H-238.76
C-238.76,500.599,-234.7,501.079,-234.7,496.119V481.879
C-234.7,478.04,-238.44,477.88,-238.44,477.88Z"/>
<path d="M210.7,471.16
C210.7,466.2,215.3,469.88,215.3,471.16V487.32
C215.3,492.28,210.7,488.6,210.7,487.32V471.16Z
M230,500.6
C230.16,500.6,233.9,501.08,233.9,496.44V471.16
C233.9,466.2,238.5,469.88,238.5,471.16
C238.48,471.16,238.5,486.68,238.5,496.44
C238.5,501.08,241.519,501.4,241.519,505.4
C241.519,507.64,240.399,509.9,238.319,509.9H215.439
C209.04,509.9,211.6,513.24,211.6,513.24
C206,510.36,205.52,500.6,214.959,500.6Z"/>
<path d="M268.42,509.9H266.02
C260.1,509.9,263.78,508.62,262.66,503.98H260.26
C260.26,509.88,257.54,509.9,257.54,509.9H256.74
C250.341,509.9,252.741,512.92,252.741,512.92
C247.301,510.2,246.341,500.78,253.861,500.78
C258.66,500.78,248.901,497.092,248.901,491V471.16
C248.901,466.2,253.5,469.88,253.5,471.16V490.36
C253.5,492.12,260.086,500.6,263.62,500.6H265.54
C269.38,500.6,276.6,493.08,276.6,485.72V481.88
C276.6,478.041,272.9,477.881,272.9,477.881H260.9L257.46,468.601H273.06
C273.06,468.601,281.2,468.761,281.2,477.881V488.92
C281.2,498.04,270.177,509.9,268.42,509.9Z"/>
<path d="M288.74,477.88L285.3,468.6H304.1
C304.1,468.6,318.8,468.76,318.8,489.4V498.68
C318.8,510.199,304.42,509.9,304.42,509.9H293.54
C287.14,509.9,289.7,513.24,289.7,513.24
C284.1,510.36,283.62,500.6,293.54,500.6H307.38
C307.38,500.6,313.139,501.08,313.139,489.88V486.04
C313.139,478.04,304.179,477.88,304.179,477.88Z"/>
<path d="M327.8,496.6V471.16
C327.8,466.2,332.4,469.88,332.4,471.16V496.6
C332.4,501.08,337.82,500.6,337.82,500.6H347.099
C347.259,500.6,350.999,501.08,350.999,496.44V471.16
C350.999,466.2,355.599,469.88,355.599,471.16V496.6
C359.279,501.24,363.419,509.9,350.779,509.9H332.539
C326.139,509.9,328.699,513.24,328.699,513.24
C323.1,510.36,322.62,500.6,332.059,500.6
C330.459,500.6,327.8,498.84,327.8,496.6Z"/>
<path d="M-356.8,144.36
C-356.8,139.4,-352.2,143.08,-352.2,144.36V160.52
C-352.2,165.48,-356.8,161.8,-356.8,160.52V144.36Z
M-337.5,173.8
C-337.34,173.8,-333.6,174.28,-333.6,169.64V144.36
C-333.6,139.4,-329,143.08,-329,144.36
C-329.02,144.36,-329,159.88,-329,169.64
C-329,174.28,-325.98,174.6,-325.98,178.6
C-325.98,180.84,-327.1,183.1,-329.18,183.1H-352.06
C-358.46,183.1,-355.9,186.439,-355.9,186.439
C-361.5,183.56,-361.98,173.8,-352.54,173.8Z"/>
<path d="M-288.8,171.88
C-288.8,183.4,-303.18,183.1,-303.18,183.1H-314.06
C-320.459,183.1,-317.899,186.44,-317.899,186.44
C-323.499,183.56,-323.979,173.8,-314.06,173.8H-300.22
C-300.22,173.8,-293.4,174.28,-293.4,163.08V144.2
C-293.4,139.4,-288.8,143.08,-288.8,144.2Z"/>
<path d="M-270.3,177.48
C-270.3,183.4,-275.2,183.1,-275.2,183.1H-276.16
C-282.56,183.1,-280.159,186.12,-280.159,186.12
C-285.599,183.4,-285.919,173.8,-278.88,173.8
C-278.88,173.8,-274.9,174.28,-274.9,169.32V144.36
C-274.9,139.24,-270.3,143.08,-270.3,144.36Z"/>
<path d="M-262.24,151.08L-265.68,141.8H-234.32L-230.88,151.08H-233.52
C-233.52,151.08,-235.1,151.08,-235.1,153.48V177.479
C-235.1,183.399,-240.08,183.099,-240.08,183.099H-257.839
C-264.239,183.099,-261.679,186.439,-261.679,186.439
C-267.279,183.559,-267.759,173.799,-257.839,173.799H-243.76
C-243.76,173.799,-239.7,174.279,-239.7,169.319V155.079
C-239.7,151.24,-243.44,151.08,-243.44,151.08Z"/>
<path d="M-212,157.16V177.48
C-212,183.4,-216.8,183.1,-216.8,183.1H-217.439
C-223.999,183.1,-221.439,186.119,-221.439,186.119
C-227.039,183.399,-227.519,173.8,-220.479,173.8
C-220.479,173.8,-216.599,174.28,-216.599,169.32V157
C-216.599,151.08,-220.959,151.08,-220.959,151.08H-222.559
C-228.159,151.08,-228.319,141.8,-222.559,141.8H-221.919
C-219.199,141.8,-216.959,145,-215.039,148.2
C-213.439,146.76,-212.319,144.52,-211.839,143.72
C-209.28,139.56,-205.28,142.92,-207.359,146.28
C-209.279,149.48,-211.839,150.28,-211.999,157.16Z"/>
<path d="M251.2,183.1H233.44
C227.04,183.1,229.6,186.44,229.6,186.44
C224,183.56,223.521,173.8,233.44,173.8H247.52
C253.28,173.8,249.3,171.88,249.3,168.2V144.36
C249.3,139.24,253.9,143.08,253.9,144.36V167.4
C253.9,172.2,263.36,183.1,251.2,183.1Z"/>
<path d="M264,164.2V157.8
C264,143.56,273.76,141.8,276.16,141.8H284.159
C286.559,141.8,296.299,143.56,296.299,157.8V171.88
C296.299,183.4,281.919,183.1,281.919,183.1H271.199
C264.8,183.1,267.2,186.44,267.2,186.44
C261.76,183.56,261.12,172.84,271.199,173.8
C271.199,173.8,264,168.52,264,164.2Z
M268.6,157.8V164.2
C268.6,168.68,275.84,173.8,275.84,173.8H284.88
C284.88,173.8,291.699,174.28,291.699,163.08V161
C291.699,151.24,283.04,151.08,283.04,151.08H275.68
C275.68,151.08,268.6,151.4,268.6,157.8Z"/>
<path d="M303.3,169.8V144.36
C303.3,139.4,307.9,143.08,307.9,144.36V169.8
C307.9,174.28,313.32,173.8,313.32,173.8H322.599
C322.759,173.8,326.499,174.28,326.499,169.64V144.36
C326.499,139.4,331.099,143.08,331.099,144.36V169.8
C334.779,174.44,338.919,183.1,326.279,183.1H308.039
C301.639,183.1,304.199,186.439,304.199,186.439
C298.6,183.56,298.12,173.8,307.559,173.8
C305.959,173.8,303.3,172.04,303.3,169.8Z"/>
<path d="M-77.632,-15.68V-12.96
C-77.632,-10.4,-81.736,-4.16,-81.736,0.24
C-81.736,2.48,-78.28,10.5,-74.68,10.5H-64.6
C-64.6,10.5,-59.2,10.96,-59.2,3.52V-19.12
C-59.2,-24.08,-55,-20.4,-55,-19.12V11.12
C-55,20,-61.504,19.7,-61.504,19.7H-79.432
C-85.192,19.7,-82.888,23.04,-82.888,23.04
C-87.928,20.16,-88.36,10.4,-79.864,10.4
C-83.824,10.4,-86.128,1.6,-86.128,-0.24
C-86.128,-3.44,-81.808,-8.64,-81.808,-10.24
C-81.808,-12.48,-83.104,-12.32,-83.104,-12.32
C-88.144,-12.32,-88.288,-21.6,-83.104,-21.6H-81.664
C-81.664,-21.6,-77.632,-21.44,-77.632,-15.84Z"/>
<path d="M-21.1,8.48
C-21.1,20,-34.112,19.7,-34.112,19.7H-43.904
C-49.664,19.7,-47.36,23.04,-47.36,23.04
C-52.399,20.16,-52.832,10.4,-43.904,10.4H-31.448
C-31.448,10.4,-25.3,10.88,-25.3,-0.32V-19.2
C-25.3,-24,-21.1,-20.32,-21.1,-19.2Z"/>
<path d="M-13.104,22.72
C-21.168,12.32,-11.664,6.88,-9.36,4
C-10.512,-0.32,-15.8,-1.28,-15.8,-6.08V-12.16
C-15.8,-15.84,-13.64,-14.72,-13.64,-16.64
C-13.64,-18.72,-18.432,-21.6,-14.112,-21.6
C-11.232,-21.6,-9.648,-21.6,-6.912,-21.6
C-1.152,-21.6,-2.16,-17.28,-4.464,-13.6
C-6.624,-10.88,-9.732,-8.96,-9.732,-6.08
C-9.732,-2.08,-7.75,-1.76,-6.192,-0.16
C11.088,-17.76,6.336,-13.12,10.368,-21.6
C17.28,-11.52,10.224,-5.44,4.752,0.48
C5.904,3.52,6.912,3.36,8.64,5.28
C10.368,3.84,9.36,1.12,10.512,1.12
C14.256,1.12,13.68,7.36,13.392,11.52
C12.816,16.96,8.496,17.119,5.904,22.72
C0.864,15.52,4.608,9.44,5.328,8.96
C4.32,6.56,4.032,5.44,1.872,4
C-10.656,15.2,-11.088,17.76,-13.104,22.72Z"/>
<path d="M19.26,4.32V-0.8
C19.26,-3.36,20.124,-5.6,24.156,-5.6
C31.788,-5.6,31.356,3.52,24.588,3.52
C23.868,3.52,24.012,4.32,24.731,5.12
C26.171,7.52,28.043,10.4,31.067,10.4H38.051
C38.051,10.4,43.199,10.88,43.199,-0.32V-4.16
C43.199,-12.16,35.171,-12.32,35.171,-12.32H21.275L18.179,-21.6H35.099
C35.099,-21.6,48.299,-21.44,48.299,-0.8V8.48
C48.299,20,35.388,19.7,35.388,19.7H25.596
C19.836,19.7,22.14,23.04,22.14,23.04
C17.532,20.32,16.668,11.52,23.724,10.24
C22.86,9.76,19.26,6.72,19.26,4.32Z"/>
<path d="M61.968,-15.68V-12.96
C61.968,-10.4,57.864,-4.16,57.864,0.24
C57.864,2.48,61.32,10.5,64.92,10.5H75
C75,10.5,80.4,10.96,80.4,3.52V-19.12
C80.4,-24.08,84.6,-20.4,84.6,-19.12V11.12
C84.6,20,78.096,19.7,78.096,19.7H60.168
C54.408,19.7,56.712,23.04,56.712,23.04
C51.672,20.16,51.24,10.4,59.736,10.4
C55.776,10.4,53.472,1.6,53.472,-0.24
C53.472,-3.44,57.792,-8.64,57.792,-10.24
C57.792,-12.48,56.496,-12.32,56.496,-12.32
C51.456,-12.32,51.312,-21.6,56.496,-21.6H57.936
C57.936,-21.6,61.968,-21.44,61.968,-15.84Z"/>
<path d="M-307.8,-143.7H-325.56
C-331.959,-143.7,-329.399,-140.36,-329.399,-140.36
C-334.999,-143.24,-335.479,-153,-325.56,-153H-311.48
C-305.72,-153,-309.7,-154.92,-309.7,-158.6V-182.44
C-309.7,-187.56,-305.1,-183.719,-305.1,-182.44V-159.4
C-305.1,-154.6,-295.64,-143.7,-307.8,-143.7Z"/>
<path d="M-282,-149.32
C-282,-143.4,-286.9,-143.7,-286.9,-143.7H-287.86
C-294.26,-143.7,-291.859,-140.68,-291.859,-140.68
C-297.299,-143.4,-297.619,-153,-290.58,-153
C-290.58,-153,-286.6,-152.52,-286.6,-157.48V-182.44
C-286.6,-187.56,-282,-183.72,-282,-182.44Z"/>
<path d="M-275,-182.44
C-275,-187.4,-270.4,-183.72,-270.4,-182.44V-166.28
C-270.4,-161.32,-275,-165,-275,-166.28V-182.44Z
M-255.7,-153
C-255.54,-153,-251.8,-152.52,-251.8,-157.16V-182.439
C-251.8,-187.399,-247.2,-183.719,-247.2,-182.439
C-247.22,-182.439,-247.2,-166.92,-247.2,-157.16
C-247.2,-152.52,-244.18,-152.2,-244.18,-148.2
C-244.18,-145.96,-245.3,-143.7,-247.38,-143.7H-270.26
C-276.66,-143.7,-274.1,-140.36,-274.1,-140.36
C-279.7,-143.24,-280.18,-153,-270.74,-153Z"/>
<path d="M240.2,-157V-182.44
C240.2,-187.4,244.8,-183.719,244.8,-182.44V-157
C244.8,-152.52,250.22,-153,250.22,-153H259.5
C259.659,-153,263.399,-152.52,263.399,-157.16V-182.44
C263.399,-187.4,267.999,-183.719,267.999,-182.44V-157
C271.679,-152.36,275.819,-143.7,263.179,-143.7H244.939
C238.54,-143.7,241.1,-140.36,241.1,-140.36
C235.5,-143.24,235.02,-153,244.459,-153
C242.86,-153,240.2,-154.76,240.2,-157Z"/>
<path d="M299.18,-175.72
C291.98,-175.72,280.94,-175.72,280.94,-175.72H280.14L276.7,-185H301.26
C301.26,-185,309.58,-185.16,309.58,-179.24
C309.58,-174.28,299.66,-167.56,297.1,-163.24
C299.18,-160.04,303.98,-155.56,303.98,-155.56
C306.22,-159.08,309.9,-158.44,309.9,-149.16
C309.9,-143.72,304.3,-143.7,304.3,-143.7H303.5
C297.1,-143.7,299.5,-140.681,299.5,-140.681
C294.06,-143.401,293.58,-153,300.62,-153
C299.66,-153.32,294.38,-159.4,294.7,-159.4
C294.7,-159.4,291.34,-160.84,291.34,-149.321
C291.34,-143.721,286.541,-143.701,286.541,-143.701H285.741
C279.341,-143.701,281.741,-140.681,281.741,-140.681
C276.301,-143.401,275.341,-153.001,282.861,-153.001
C283.821,-153.001,285.741,-152.041,286.701,-157.481
C288.141,-164.201,295.821,-171.561,299.181,-174.281
C301.26,-175.72,299.98,-175.72,299.181,-175.72Z"/>
<path d="M317.74,-175.72L314.3,-185H324.3
C324.3,-185,332.599,-184.84,332.599,-175.72V-149.32
C332.599,-143.4,327.82,-143.7,327.82,-143.7H327.02
C320.62,-143.7,323.02,-140.68,323.02,-140.68
C317.58,-143.4,317.1,-153,323.98,-153
C323.98,-153,328,-152.52,328,-157.48V-171.72
C328,-175.56,324.3,-175.72,324.3,-175.72Z"/>
<path d="M-29.8,-307H-47.56
C-53.96,-307,-51.399,-303.66,-51.399,-303.66
C-56.999,-306.54,-57.479,-316.3,-47.56,-316.3H-33.48
C-27.72,-316.3,-31.7,-318.22,-31.7,-321.9V-345.74
C-31.7,-350.859,-27.1,-347.019,-27.1,-345.74V-322.7
C-27.1,-317.9,-17.64,-307,-29.8,-307Z"/>
<path d="M-4.3,-312.62
C-4.3,-306.7,-9.2,-307,-9.2,-307H-10.16
C-16.56,-307,-14.159,-303.98,-14.159,-303.98
C-19.599,-306.7,-19.919,-316.3,-12.88,-316.3
C-12.88,-316.3,-8.9,-315.82,-8.9,-320.78V-345.74
C-8.9,-350.86,-4.3,-347.02,-4.3,-345.74Z"/>
<path d="M1.6,-325.9V-332.3
C1.6,-346.54,11.36,-348.3,13.76,-348.3H21.76
C24.159,-348.3,33.899,-346.54,33.899,-332.3V-318.22
C33.899,-306.7,19.52,-307,19.52,-307H8.8
C2.4,-307,4.8,-303.66,4.8,-303.66
C-0.64,-306.54,-1.28,-317.26,8.8,-316.3
C8.8,-316.3,1.6,-321.58,1.6,-325.9H1.6Z
M6.2,-332.3V-325.9
C6.2,-321.42,13.44,-316.3,13.44,-316.3H22.48
C22.48,-316.3,29.3,-315.82,29.3,-327.02V-329.1
C29.3,-338.86,20.64,-339.02,20.64,-339.02H13.28
C13.28,-339.02,6.2,-338.7,6.2,-332.3Z"/>
<path d="M44.68,-322.54
C41.16,-326.54,46.6,-326.22,48.04,-324.46
C49.96,-322.38,52.36,-319.98,52.36,-317.42V-312.62
C52.36,-306.7,47.4,-307,47.4,-307H46.44
C40.04,-307,42.44,-303.98,42.44,-303.98
C37,-306.7,36.68,-316.3,43.72,-316.3
C43.72,-316.3,50.6,-315.18,47.72,-318.7
C47.72,-318.7,45.8,-321.1,44.68,-322.54Z"/>
<path d="M-73.48,-669.18V-666.46
C-73.48,-663.9,-78.04,-657.66,-78.04,-653.26
C-78.04,-651.02,-74.2,-643,-70.2,-643H-59
C-59,-643,-53,-642.54,-53,-649.98V-672.62
C-53,-677.58,-48.4,-673.9,-48.4,-672.62V-642.38
C-48.4,-633.5,-55.56,-633.8,-55.56,-633.8H-75.48
C-81.88,-633.8,-79.32,-630.46,-79.32,-630.46
C-84.92,-633.34,-85.4,-643.1,-75.96,-643.1
C-80.36,-643.1,-82.92,-651.9,-82.92,-653.74
C-82.92,-656.94,-78.12,-662.14,-78.12,-663.74
C-78.12,-665.98,-79.56,-665.82,-79.56,-665.82
C-85.16,-665.82,-85.32,-675.1,-79.56,-675.1H-77.96
C-77.96,-675.1,-73.48,-674.94,-73.48,-669.34Z"/>
<path d="M-29.9,-639.42
C-29.9,-633.5,-34.8,-633.8,-34.8,-633.8H-35.76
C-42.16,-633.8,-39.76,-630.78,-39.76,-630.78
C-45.2,-633.5,-45.519,-643.1,-38.48,-643.1
C-38.48,-643.1,-34.5,-642.62,-34.5,-647.58V-672.54
C-34.5,-677.66,-29.9,-673.82,-29.9,-672.54Z"/>
<path d="M-21.96,-665.82L-25.4,-675.1H-6.6
C-6.6,-675.1,8.1,-674.94,8.1,-654.3V-645.02
C8.1,-633.5,-6.28,-633.8,-6.28,-633.8H-17.16
C-23.56,-633.8,-21,-630.46,-21,-630.46
C-26.6,-633.34,-27.08,-643.1,-17.16,-643.1H-3.32
C-3.32,-643.1,2.44,-642.62,2.44,-653.82V-657.66
C2.44,-665.66,-6.52,-665.82,-6.52,-665.82Z"/>
<path d="M12.26,-637.18
C12.26,-640.22,14.66,-643.1,19.94,-643.1H36.74
C36.74,-643.1,40.599,-642.62,40.599,-647.58V-649.66
C40.599,-657.659,24.901,-661.5,23.139,-667.58
C19.62,-679.74,37.059,-675.099,28.259,-668.219
C28.099,-668.06,27.94,-667.58,28.259,-667.42
C30.659,-665.66,45.199,-658.94,45.199,-649.66V-639.58
C45.199,-633.66,40.419,-633.8,40.419,-633.8H19.94
C17.7,-633.8,15.62,-632.046,20.259,-628.22
C21.859,-626.781,22.999,-625.5,22.999,-623.421
C22.999,-618.621,14.819,-619.741,14.819,-623.101
C14.819,-624.701,18.399,-623.741,18.399,-625.341
C18.399,-626.301,12.259,-628.221,12.259,-637.181Z"/>
<path d="M70.42,-633.8H68.02
C62.1,-633.8,65.78,-635.08,64.66,-639.72H62.26
C62.26,-633.82,59.54,-633.8,59.54,-633.8H58.74
C52.341,-633.8,54.741,-630.78,54.741,-630.78
C49.301,-633.5,48.341,-642.92,55.861,-642.92
C60.66,-642.92,50.901,-646.608,50.901,-652.7V-672.54
C50.901,-677.5,55.5,-673.819,55.5,-672.54V-653.34
C55.5,-651.58,62.086,-643.1,65.62,-643.1H67.54
C71.38,-643.1,78.6,-650.619,78.6,-657.979V-661.819
C78.6,-665.659,74.9,-665.819,74.9,-665.819H62.9L59.46,-675.099H75.06
C75.06,-675.099,83.2,-674.939,83.2,-665.819V-654.779
C83.2,-645.659,72.177,-633.799,70.42,-633.799Z"/>
<path d="M4.8,320.288V336.544
C4.8,341.28,0.96,341,0.96,341H0.448
C-4.8,341,-2.752,343.455,-2.752,343.455
C-7.232,341.28,-7.616,333.599,-1.984,333.599
C-1.984,333.599,1.1,333.983,1.1,330.015V320.159
C1.1,315.424,-2.368,315.424,-2.368,315.424H-3.648
C-8.128,315.424,-8.256,308,-3.648,308H-3.136
C-0.96,308,0.832,310.56,2.368,313.12
C3.648,311.968,4.544,310.176,4.928,309.536
C6.976,306.208,10.176,308.896,8.512,311.583
C6.976,314.143,4.928,314.783,4.8,320.287Z"/>
<path d="M-153.466,560.192L-156.132,553H-131.828L-129.162,560.192H-131.208
C-131.208,560.192,-132.4,560.192,-132.4,562.052V580.652
C-132.4,585.24,-136.292,585,-136.292,585H-150.055
C-155.015,585,-153.031,587.595,-153.031,587.595
C-157.371,585.364,-157.743,577.8,-150.055,577.8H-139.144
C-139.144,577.8,-136,578.171,-136,574.328V563.292
C-136,560.316,-138.896,560.192,-138.896,560.192Z"/>
<path d="M129.216,591.048
C122.272,582.988,130.456,578.772,132.44,576.54
C131.448,573.192,126.8,572.448,126.8,568.728V564.016
C126.8,561.165,128.66,562.032,128.66,560.544
C128.66,558.933,124.628,556.7,128.348,556.7
C130.828,556.7,132.192,556.7,134.548,556.7
C139.508,556.7,138.64,560.048,136.656,562.9
C134.796,565.008,132.028,566.496,132.028,568.728
C132.028,571.828,133.786,572.076,135.168,573.316
C150.048,559.676,145.956,563.272,149.427,556.7
C155.379,564.512,149.304,569.224,144.592,573.812
C145.583,576.168,146.451,576.044,147.939,577.532
C149.427,576.416,148.559,574.308,149.551,574.308
C152.775,574.308,152.279,579.144,152.031,582.368
C151.535,586.584,147.815,586.708,145.583,591.048
C141.243,585.468,144.467,580.756,145.087,580.384
C144.219,578.524,143.971,577.656,142.112,576.54
C131.324,585.22,130.952,587.204,129.216,591.048Z"/>
<path d="M5.76,506H-8.448
C-13.568,506,-11.52,508.712,-11.52,508.712
C-16,506.408,-16.384,498.6,-8.448,498.6H2.816
C7.424,498.6,4.2,497.064,4.2,494.12V475.048
C4.2,470.952,7.9,474.024,7.9,475.048V493.48
C7.9,497.32,15.488,506,5.76,506Z"/>
<path d="M-184.984,331.552
C-183.704,332.384,-179.16,341.2,-189.528,341.2L-190.36,341.28
C-194.84,341.28,-195.352,342.495,-195.927,343.455
C-197.143,342.688,-200.983,334.624,-192.472,333.919
C-196.12,327.135,-190.996,322.016,-191.7,310.048
C-191.7,306.08,-188.8,309.024,-188.8,310.048
C-186.048,320.979,-191.96,328.01,-189.464,333.763
C-185.496,333.637,-185.496,332.5,-184.984,331.552Z"/>
<path d="M177.9,310.048
C177.9,306.08,181.6,309.024,181.6,310.048V322.976
C181.6,326.944,177.9,324,177.9,322.976V310.048Z
M193.4,333.6
C193.528,333.6,196.5,333.984,196.5,330.272V310.048
C196.5,306.08,200.2,309.024,200.2,310.048
C200.184,310.048,200.2,322.464,200.2,330.272
C200.2,333.984,202.615,334.24,202.615,337.44
C202.615,339.232,201.719,341,200.056,341H181.752
C176.632,341,178.68,343.712,178.68,343.712
C174.2,341.408,173.816,333.6,181.368,333.6Z"/>
<path d="M-295.3,330.4V310.048
C-295.3,306.08,-291.6,309.024,-291.6,310.048V330.4
C-291.6,333.984,-287.224,333.6,-287.224,333.6H-279.8
C-279.672,333.6,-276.7,333.984,-276.7,330.272V310.048
C-276.7,306.08,-273,309.024,-273,310.048V330.4
C-270.056,334.112,-266.744,341,-276.856,341H-291.448
C-296.568,341,-294.52,343.712,-294.52,343.712
C-299,341.408,-299.384,333.6,-291.832,333.6
C-293.112,333.6,-295.3,332.192,-295.3,330.4Z"/>
<path d="M286.9,336.544
C286.9,341.28,282.96,341,282.96,341H282.192
C277.072,341,278.992,343.456,278.992,343.456
C274.64,341.28,274.384,333.6,280.016,333.6
C280.016,333.6,283.2,333.983,283.2,330.016V310.048
C283.2,305.952,286.9,309.024,286.9,310.048Z"/>
<path d="M0.128,167.832
C-0.384,166.68,1.024,165.912,1.408,167.192
C2.944,171.416,4.096,171.8,5.248,171.8
C5.248,171.8,7.899,172.312,7.899,166.552V165.784
C7.899,162.712,3.692,153.624,-1.408,153.624H-6.784
C-6.784,153.624,-10.4,153.496,-10.4,156.952V163.608
C-10.4,166.296,-9.49,166.168,-8.321,167.448
C-7.937,167.32,-6.401,166.424,-6.657,164.376
C-4.353,165.144,-2.945,166.68,-2.945,168.856
C-2.945,171.928,-2.433,172.696,-4.865,175.128
C-6.529,176.792,-8.833,177.56,-9.217,181.656
C-10.624,179.864,-12.308,179.224,-12.308,175.384
C-12.308,171.672,-11.661,172.184,-10.368,170.008
C-12.672,167.576,-14.1,166.296,-14.1,163.608V153.624
C-14.1,148.76,-10.119,146.2,-7.808,146.2H-1.281
C6.527,146.2,11.599,158.488,11.599,165.784V174.744
C11.599,179.48,7.679,179.2,7.679,179.2H3.199
C3.199,179.2,1.7,179.074,1.7,177.432
C1.7,175.896,2.048,173.336,0.128,167.832Z"/>
<path d="M-153.636,90.44
C-153.636,88.16,-151.776,86,-147.684,86H-134.664
C-134.664,86,-131.7,86.36,-131.7,82.64V81.08
C-131.7,75.081,-143.841,72.2,-145.204,67.64
C-147.932,58.52,-134.417,62,-141.237,67.16
C-141.36,67.28,-141.484,67.64,-141.237,67.76
C-139.377,69.08,-128.101,74.12,-128.101,81.08V88.64
C-128.101,93.08,-131.813,93,-131.813,93H-147.684
C-149.42,93,-151.032,94.307,-147.437,97.16
C-146.197,98.24,-145.301,99.2,-145.301,100.76
C-145.301,104.359,-151.652,103.519,-151.652,101
C-151.652,99.8,-148.9,100.52,-148.9,99.32
C-148.9,98.6,-153.636,97.16,-153.636,90.44Z"/>
<path d="M132.784,76.608
C129.968,73.408,134.32,73.664,135.472,75.072
C137.008,76.736,138.928,78.656,138.928,80.704V84.544
C138.928,89.28,134.96,89,134.96,89H134.192
C129.072,89,130.992,91.455,130.992,91.455
C126.64,89.28,126.384,81.599,132.016,81.599
C132.016,81.599,137.52,82.495,135.216,79.679
C135.216,79.679,133.68,77.76,132.784,76.608Z"/>
<path d="M-132.6,-83.904
C-132.632,-81.856,-132.6,-80.448,-132.6,-78.4
C-129.912,-78.4,-128.664,-71,-134.936,-71H-135.576
C-140.696,-71,-138.776,-68.416,-138.776,-68.416
C-143.639,-72,-143.127,-78.336,-136.344,-78.464
C-136.344,-78.464,-136.3,-79.853,-136.3,-83.136
C-136.3,-86.72,-138.881,-89.536,-141.592,-91.328
C-145.944,-87.744,-148.9,-85.696,-148.9,-83.776
C-148.888,-81.728,-148.9,-80.448,-148.9,-78.4
C-143.524,-78.4,-143.256,-71,-149.528,-71H-150.167
C-155.287,-71,-153.367,-68.544,-153.367,-68.544
C-157.719,-70.72,-158.103,-78.4,-152.6,-78.4
C-152.6,-78.4,-152.6,-82.112,-152.6,-84.544
C-152.6,-89.28,-149.272,-90.432,-146.456,-93.248
C-146.456,-93.248,-152.216,-95.424,-155.928,-97.088
C-159.128,-98.367,-158.232,-104,-154.136,-104
C-154.136,-104,-132.6,-99.904,-132.6,-83.904Z"/>
<path d="M129.712,-86.576L126.96,-94H134.96
C134.96,-94,141.6,-93.872,141.6,-86.576V-65.456
C141.6,-60.72,137.776,-61,137.776,-61H137.136
C132.016,-61,133.936,-58.544,133.936,-58.544
C129.584,-60.72,129.2,-68.4,134.704,-68.4
C134.704,-68.4,137.899,-68.017,137.899,-71.984V-83.376
C137.899,-86.448,134.959,-86.576,134.959,-86.576Z"/>
<path d="M-280.464,11H-282.384
C-287.12,11,-284.176,9.976,-285.072,6.264H-286.992
C-286.992,11.024,-289.167,11,-289.167,11H-289.807
C-294.927,11,-293.007,13.456,-293.007,13.456
C-297.359,11.28,-298.127,3.664,-292.111,3.664
C-288.271,3.664,-296.099,0.744,-296.099,-4.08V-19.952
C-296.099,-23.92,-292.399,-20.976,-292.399,-19.952V-4.592
C-292.399,-3.184,-287.13,3.6,-284.303,3.6H-282.767
C-279.696,3.6,-273.899,-2.416,-273.899,-8.304V-11.376
C-273.899,-14.448,-276.879,-14.576,-276.879,-14.576H-286.479L-289.231,-22H-276.751
C-276.751,-22,-270.199,-21.872,-270.199,-14.576V-5.744
C-270.199,1.552,-279.052,11,-280.463,11Z"/>
<path d="M271.212,-14.576L268.46,-22H283.5
C283.5,-22,295.3,-21.872,295.3,-5.36V2.064
C295.3,11.28,283.756,11,283.756,11H275.052
C269.932,11,271.98,13.712,271.98,13.712
C267.5,11.408,267.116,3.6,275.052,3.6H286.124
C286.124,3.6,290.731,3.984,290.731,-4.976V-8.048
C290.731,-14.448,283.563,-14.576,283.563,-14.576Z"/>
<path d="M-14.08,-159.864V-163.96
C-14.08,-166.008,-13.312,-167.8,-9.728,-167.8
C-2.944,-167.8,-3.328,-160.464,-9.344,-160.464
C-9.984,-160.464,-9.856,-159.844,-9.216,-159.224
C-7.937,-157.304,-6.272,-155,-3.584,-155H2.623
C2.623,-155,7.299,-154.616,7.299,-163.576V-166.647
C7.299,-173.047,0.063,-173.175,0.063,-173.175H-12.289L-15.04,-180.599H-0.001
C-0.001,-180.599,11.799,-180.471,11.799,-163.959V-156.535
C11.799,-147.32,0.255,-147.6,0.255,-147.6H-8.449
C-13.569,-147.6,-11.52,-144.888,-11.52,-144.888
C-15.616,-147.063,-16.384,-154.104,-10.112,-155.128
C-10.88,-155.511,-14.08,-157.944,-14.08,-159.864Z"/>
<path d="M-14.1,-207V-211.8
C-14.1,-222.479,-6.568,-223.799,-4.716,-223.799H1.484
C3.344,-223.799,10.9,-222.479,10.9,-211.8V-201.24
C10.9,-192.6,-0.252,-192.8,-0.252,-192.8H-8.56
C-13.52,-192.8,-11.66,-190.32,-11.66,-190.32
C-15.876,-192.48,-16.372,-200.52,-8.56,-199.8
C-8.56,-199.8,-14.1,-203.76,-14.1,-207Z
M-10.5,-211.8V-207
C-10.5,-203.64,-4.964,-199.8,-4.964,-199.8H2.042
C2.042,-199.8,7.3,-199.44,7.3,-207.84V-209.4
C7.3,-216.719,0.616,-216.84,0.616,-216.84H-5.088
C-5.088,-216.84,-10.5,-216.6,-10.5,-211.8Z"/>
<path d="M147.352,-254.04
C141.772,-254.04,133.216,-254.04,133.216,-254.04H132.596L129.93,-261H148.964
C148.964,-261,155.412,-261.12,155.412,-256.68
C155.412,-252.96,147.724,-247.92,145.74,-244.68
C147.352,-242.28,151.072,-238.92,151.072,-238.92
C152.808,-241.56,155.66,-241.08,155.66,-234.121
C155.66,-230.041,151.32,-230.001,151.32,-230.001H150.7
C145.74,-230.001,147.6,-227.761,147.6,-227.761
C143.385,-229.801,143.012,-237.001,148.468,-237.001
C147.724,-237.241,143.632,-241.801,143.88,-241.801
C143.88,-241.801,141.277,-242.88,141.277,-234.241
C141.277,-230.041,137.557,-230.001,137.557,-230.001H136.937
C131.977,-230.001,133.837,-227.761,133.837,-227.761
C129.621,-229.801,128.877,-237.001,134.705,-237.001
C135.449,-237.001,136.937,-236.281,137.681,-240.361
C138.797,-245.4,144.749,-250.92,147.353,-252.96
C148.964,-254.04,147.972,-254.04,147.353,-254.04Z"/>
<path d="M-131.1,-241.44
C-131.1,-232.8,-142.252,-233,-142.252,-233H-150.684
C-155.644,-233,-153.659,-230.52,-153.659,-230.52
C-157.999,-232.68,-158.371,-240,-150.684,-240H-139.958
C-139.958,-240,-134.7,-239.64,-134.7,-248.04V-262.2
C-134.7,-265.8,-131.1,-263.04,-131.1,-262.2Z"/>
<path d="M-126.524,-440.508H-128.756
C-129.5,-440.508,-130.74,-439.392,-130.12,-438.152
C-127.268,-431.828,-122.68,-418.312,-126.276,-416.452
C-127.639,-415.708,-129.127,-416.204,-129.5,-413.352
C-133.839,-415.46,-134.211,-422.776,-128.756,-422.776
C-128.756,-422.776,-132.971,-440.508,-136.939,-440.508
C-138.675,-440.508,-139.623,-438.276,-139.623,-436.54V-432.2
C-139.623,-427.488,-132.599,-418.932,-137.188,-416.452
C-138.675,-415.708,-140.039,-416.205,-140.535,-413.353
C-144.751,-415.46,-145.247,-422.776,-139.792,-422.776
C-139.792,-422.776,-143.099,-429.1,-143.099,-432.572V-442.12
C-143.099,-447.452,-139.295,-447.7,-139.295,-447.7H-126.399
C-121.812,-447.7,-110.9,-418.312,-114.496,-416.452
C-115.859,-415.708,-118.216,-416.204,-118.711,-413.352
C-122.927,-415.46,-123.299,-422.776,-117.968,-422.776
C-117.968,-422.776,-122.307,-440.508,-126.523,-440.508Z"/>
<path d="M128.6,-444.68
C128.6,-448.524,132.2,-445.672,132.2,-444.68V-420.81
C132.2,-417.09,128.6,-419.942,128.6,-420.81V-444.68Z
M148.3,-418.764
C148.3,-422.236,138.268,-428.436,138.268,-432.404
C138.268,-437.24,141.492,-437.24,141.492,-432.404
C141.492,-429.18,151.9,-422.98,151.9,-418.764V-410.766
C151.9,-403.884,146.328,-404,146.328,-404H132.316
C127.356,-404,129.216,-401.528,129.34,-401.404
C125,-403.636,124.628,-411.2,132.316,-411.2H143.662
C143.662,-411.2,148.3,-410.828,148.3,-416.594Z"/>
<path d="M-6.784,-508.264V-506.088
C-6.784,-504.04,-10.432,-499.048,-10.432,-495.528
C-10.432,-493.736,-7.36,-487.4,-4.16,-487.4H4.8
C4.8,-487.4,9.6,-486.952,9.6,-492.904V-511.016
C9.6,-514.984,13.3,-512.04,13.3,-511.016V-486.824
C13.3,-479.72,7.552,-480,7.552,-480H-8.384
C-13.504,-480,-11.456,-477.288,-11.456,-477.288
C-15.936,-479.592,-16.319,-487.4,-8.768,-487.4
C-12.287,-487.4,-14.335,-494.44,-14.335,-495.912
C-14.335,-498.472,-10.496,-502.632,-10.496,-503.912
C-10.496,-505.704,-11.648,-505.576,-11.648,-505.576
C-16.127,-505.576,-16.255,-513,-11.648,-513H-10.368
C-10.368,-513,-6.784,-512.872,-6.784,-508.392Z"/>
</g></svg>